  <svg xmlns="http://www.w3.org/2000/svg" viewBox="0 0 256 256" fill="#239120" className="w-6 h-6">
    <path d="M121.616.353L9.192 64.973C3.476 68.233 0 74.326 0 80.797v94.405c0 6.472 3.476 12.565 9.192 15.825l112.424 64.62c5.715 3.26 12.668 3.26 18.383 0l112.424-64.62c5.716-3.26 9.192-9.353 9.192-15.825V80.797c0-6.471-3.476-12.564-9.192-15.824L139.999.353c-5.715-3.26-12.668-3.26-18.383 0zm66.997 138.847c-.147 2.093-.893 4.134-2.186 5.873-3.485 4.697-9.232 7.144-16.962 7.144-10.352 0-17.828-6.015-17.828-14.349 0-9.173 6.557-14.591 20.398-14.591h3.52c1.089 0 2.174.088 3.252.224l-.004-4.023c-.025-4.687-2.319-7.147-7.677-7.147-4.599 0-6.855 1.81-7.455 5.252-.034.312-.16.615-.376.858a1.146 1.146 0 01-.828.356h-5.979c-.596 0-1.078-.464-1.086-1.035.134-7.619 6.718-12.417 15.886-12.417 9.707 0 14.986 4.806 14.986 13.641v20.166zm-13.377-8.831l-3.564-.178c-7.166-.356-10.031 1.401-10.031 4.806 0 2.764 2.244 4.452 5.808 4.452 5.45 0 7.787-2.76 7.787-6.872v-2.208zm-37.681 4.361a1.09 1.09 0 01-.91.486h-6.096a1.09 1.09 0 01-.948-.534 1.348 1.348 0 01-.075-1.066c2.863-8.907-5.067-13.062-11.878-15.551-2.471-.9-5.005-1.664-7.578-2.393-6.215-1.762-11.536-3.282-11.536-7.51 0-3.938 4.031-6.737 9.705-6.737 5.762 0 9.187 2.355 9.885 6.758.057.362.243.69.536.888a1.418 1.418 0 001.04.209h6.064c.261 0 .52-.064.752-.188.388-.206.647-.573.679-.958.019-.18.019-.361 0-.54-.954-8.345-7.869-13.898-18.829-13.898-10.402 0-18.498 5.343-18.498 12.551 0 8.455 7.259 10.765 15.139 12.85 2.571.68 5.134 1.348 7.595 2.135 5.311 1.695 9.271 3.787 8.68 8.203-.516 3.885-4.394 6.461-10.201 6.461-7.803 0-9.855-4.582-10.178-6.913a1.092 1.092 0 00-.471-.735 1.307 1.307 0 00-.84-.188h-6.18a1.093 1.093 0 00-.776.332 1.073 1.073 0 00-.295.786c.829 8.803 8.135 14.351 18.761 14.351 11.167 0 18.995-5.51 19.207-13.611a.955.955 0 00-.004-.296zm37.424-46.861h5.84a1.09 1.09 0 011.057.85l7.785 33.405 8.365-33.405a1.1 1.1 0 011.079-.85h5.698a1.09 1.09 0 011.09 1.035v.023l-.466 45.946a1.09 1.09 0 01-1.09 1.057h-5.671a1.09 1.09 0 01-1.085-1.012l-.249-32.337-7.452 29.897a1.088 1.088 0 01-1.054.846h-5.021a1.09 1.09 0 01-1.056-.846l-7.96-30.222-.242 32.651a1.09 1.09 0 01-1.089 1.023h-5.6a1.09 1.09 0 01-1.089-1.069l.008-.118.355-45.829a1.09 1.09 0 011.09-1.058h5.627c.496 0 .928.331 1.05.806zm60.32 31.057h-14.656v-9.364h14.656a1.35 1.35 0 001.346-1.346v-5.379a1.35 1.35 0 00-1.346-1.346h-14.656v-8.375h14.656a1.35 1.35 0 001.346-1.346v-5.683a1.35 1.35 0 00-1.346-1.346H213.68a1.35 1.35 0 00-1.347 1.346v46.3a1.35 1.35 0 001.347 1.347h21.619a1.348 1.348 0 001.346-1.346v-5.834c0-.361-.143-.708-.4-.964a1.352 1.352 0 00-.946-.3z"/>
  </svg>
